<svg version="1.1" xmlns="http://www.w3.org/2000/svg" xmlns:xlink="http://www.w3.org/1999/xlink" width="923.958984375" height="613"><defs/><g><g transform="translate(-54,-70) scale(1,1)"><rect fill="#C0C0C0" stroke="none" x="423" y="271" width="232" height="200" opacity="0.2"/></g><g transform="translate(-54,-70) scale(1,1)"><rect fill="#ffffff" stroke="none" x="416" y="264" width="232" height="200"/></g><g transform="translate(-54,-70) scale(1,1)"><path fill="none" stroke="#000000" d="M 416 264 L 648 264 L 648 464 L 416 464 L 416 264 Z Z" stroke-miterlimit="10"/></g><g transform="translate(-54,-70) scale(1,1)"><path fill="none" stroke="#000000" d="M 416 289 L 648 289" stroke-miterlimit="10"/></g><g transform="translate(-54,-70) scale(1,1)"><path fill="none" stroke="#000000" d="M 416 299 L 648 299" stroke-miterlimit="10"/></g><g transform="translate(-54,-70) scale(1,1)"><g><path fill="none" stroke="none"/><text fill="#000000" stroke="none" font-family="Arial" font-size="13px" font-style="normal" font-weight="bold" text-decoration="none" x="455.7900390625" y="281.5">Programming languages</text></g></g><g transform="translate(-54,-70) scale(1,1)"><path fill="none" stroke="#000000" d="M 124.28819828245143 458.3437450654196 A 13.5 13.5 0 0 1 107.71180171754857 479.6562549345804" stroke-miterlimit="10"/></g><g transform="translate(-54,-70) scale(1,1)"><path fill="none" stroke="#000000" d="M 64 508 L 169.42724609375 508" stroke-miterlimit="10"/></g><g transform="translate(-54,-70) scale(1,1)"><path fill="none" stroke="#000000" d="M 64 606 L 169.42724609375 606" stroke-miterlimit="10"/></g><g transform="translate(-54,-70) scale(1,1)"><g><path fill="none" stroke="none"/><text fill="#000000" stroke="none" font-family="Arial" font-size="13px" font-style="normal" font-weight="bold" text-decoration="none" x="79.875" y="500.5">Standard IO</text></g></g><g transform="translate(-54,-70) scale(1,1)"><g><path fill="none" stroke="none"/><text fill="#000000" stroke="none" font-family="Arial" font-size="13px" font-style="normal" font-weight="normal" text-decoration="none" x="69" y="523.5">+PrintStdOut</text></g></g><g transform="translate(-54,-70) scale(1,1)"><g><path fill="none" stroke="none"/><text fill="#000000" stroke="none" font-family="Arial" font-size="13px" font-style="normal" font-weight="normal" text-decoration="none" x="69" y="538.5">+GetStdIn</text></g></g><g transform="translate(-54,-70) scale(1,1)"><g><path fill="none" stroke="none"/><text fill="#000000" stroke="none" font-family="Arial" font-size="13px" font-style="normal" font-weight="normal" text-decoration="none" x="69" y="553.5">+PrintStdErr</text></g></g><g transform="translate(-54,-70) scale(1,1)"><g><path fill="none" stroke="none"/><text fill="#000000" stroke="none" font-family="Arial" font-size="13px" font-style="normal" font-weight="normal" text-decoration="none" x="69" y="568.5">+OpenFile</text></g></g><g transform="translate(-54,-70) scale(1,1)"><g><path fill="none" stroke="none"/><text fill="#000000" stroke="none" font-family="Arial" font-size="13px" font-style="normal" font-weight="normal" text-decoration="none" x="69" y="583.5">+CloseFile</text></g></g><g transform="translate(-54,-70) scale(1,1)"><g><path fill="none" stroke="none"/><text fill="#000000" stroke="none" font-family="Arial" font-size="13px" font-style="normal" font-weight="normal" text-decoration="none" x="69" y="598.5">+PrintToFile</text></g></g><g transform="translate(-54,-70) scale(1,1)"><path fill="none" stroke="#000000" d="M 415 338 L 408 336 L 248 336 L 240 480 L 130.213623046875 480.05504014756946" stroke-miterlimit="10"/></g><g transform="translate(-54,-70) scale(1,1)"><path fill="none" stroke="#000000" d="M 311.6564698759303 396.8905883540116 A 11.5 11.5 0 0 1 334.3435301240697 393.1094116459884" stroke-miterlimit="10"/></g><g transform="translate(-54,-70) scale(1,1)"><path fill="none" stroke="#000000" d="M 256 432 L 391.4072265625 432" stroke-miterlimit="10"/></g><g transform="translate(-54,-70) scale(1,1)"><g><path fill="none" stroke="none"/><text fill="#000000" stroke="none" font-family="Arial" font-size="13px" font-style="normal" font-weight="bold" text-decoration="none" x="264.47998046875" y="424.5">Standard functions</text></g></g><g transform="translate(-54,-70) scale(1,1)"><g><path fill="none" stroke="none"/><text fill="#000000" stroke="none" font-family="Arial" font-size="13px" font-style="normal" font-weight="normal" text-decoration="none" x="261" y="447.5">+If</text></g></g><g transform="translate(-54,-70) scale(1,1)"><g><path fill="none" stroke="none"/><text fill="#000000" stroke="none" font-family="Arial" font-size="13px" font-style="normal" font-weight="normal" text-decoration="none" x="261" y="462.5">+For</text></g></g><g transform="translate(-54,-70) scale(1,1)"><g><path fill="none" stroke="none"/><text fill="#000000" stroke="none" font-family="Arial" font-size="13px" font-style="normal" font-weight="normal" text-decoration="none" x="261" y="477.5">+While</text></g></g><g transform="translate(-54,-70) scale(1,1)"><path fill="none" stroke="#000000" d="M 415 366 L 320 368 L 321.1666666666667 384" stroke-miterlimit="10"/></g><g transform="translate(-54,-70) scale(1,1)"><path fill="none" stroke="#000000" d="M 410.53972378018386 522.044976981682 A 11.5 11.5 0 0 1 433.46027621981614 523.955023018318" stroke-miterlimit="10"/></g><g transform="translate(-54,-70) scale(1,1)"><path fill="none" stroke="#000000" d="M 384 560 L 461.39599609375 560" stroke-miterlimit="10"/></g><g transform="translate(-54,-70) scale(1,1)"><g><path fill="none" stroke="none"/><text fill="#000000" stroke="none" font-family="Arial" font-size="13px" font-style="normal" font-weight="bold" text-decoration="none" x="388.5" y="552.5">Data Types</text></g></g><g transform="translate(-54,-70) scale(1,1)"><g><path fill="none" stroke="none"/><text fill="#000000" stroke="none" font-family="Arial" font-size="13px" font-style="normal" font-weight="normal" text-decoration="none" x="389" y="575.5">+Int</text></g></g><g transform="translate(-54,-70) scale(1,1)"><g><path fill="none" stroke="none"/><text fill="#000000" stroke="none" font-family="Arial" font-size="13px" font-style="normal" font-weight="normal" text-decoration="none" x="389" y="590.5">+String</text></g></g><g transform="translate(-54,-70) scale(1,1)"><g><path fill="none" stroke="none"/><text fill="#000000" stroke="none" font-family="Arial" font-size="13px" font-style="normal" font-weight="normal" text-decoration="none" x="389" y="605.5">+Character</text></g></g><g transform="translate(-54,-70) scale(1,1)"><g><path fill="none" stroke="none"/><text fill="#000000" stroke="none" font-family="Arial" font-size="13px" font-style="normal" font-weight="normal" text-decoration="none" x="389" y="620.5">+Array</text></g></g><g transform="translate(-54,-70) scale(1,1)"><g><path fill="none" stroke="none"/><text fill="#000000" stroke="none" font-family="Arial" font-size="13px" font-style="normal" font-weight="normal" text-decoration="none" x="389" y="635.5">+Vector</text></g></g><g transform="translate(-54,-70) scale(1,1)"><g><path fill="none" stroke="none"/><text fill="#000000" stroke="none" font-family="Arial" font-size="13px" font-style="normal" font-weight="normal" text-decoration="none" x="389" y="650.5">+Boolean</text></g></g><g transform="translate(-54,-70) scale(1,1)"><g><path fill="none" stroke="none"/><text fill="#000000" stroke="none" font-family="Arial" font-size="13px" font-style="normal" font-weight="normal" text-decoration="none" x="389" y="665.5">+Pointers</text></g></g><g transform="translate(-54,-70) scale(1,1)"><path fill="none" stroke="#000000" d="M 438 465 L 424 480 L 422.9166666666667 512" stroke-miterlimit="10"/></g><g transform="translate(-54,-70) scale(1,1)"><path fill="none" stroke="#000000" d="M 506.21020929550235 512.1815313943254 A 19 19 0 0 1 543.7897907044977 517.8184686056746" stroke-miterlimit="10"/></g><g transform="translate(-54,-70) scale(1,1)"><path fill="none" stroke="#000000" d="M 480 559 L 571.7353515625 559" stroke-miterlimit="10"/></g><g transform="translate(-54,-70) scale(1,1)"><g><path fill="none" stroke="none"/><text fill="#000000" stroke="none" font-family="Arial" font-size="13px" font-style="normal" font-weight="bold" text-decoration="none" x="491.555419921875" y="551.5">Operations</text></g></g><g transform="translate(-54,-70) scale(1,1)"><g><path fill="none" stroke="none"/><text fill="#000000" stroke="none" font-family="Arial" font-size="13px" font-style="normal" font-weight="normal" text-decoration="none" x="485" y="574.5">+Addition</text></g></g><g transform="translate(-54,-70) scale(1,1)"><g><path fill="none" stroke="none"/><text fill="#000000" stroke="none" font-family="Arial" font-size="13px" font-style="normal" font-weight="normal" text-decoration="none" x="485" y="589.5">+Subtraction</text></g></g><g transform="translate(-54,-70) scale(1,1)"><g><path fill="none" stroke="none"/><text fill="#000000" stroke="none" font-family="Arial" font-size="13px" font-style="normal" font-weight="normal" text-decoration="none" x="485" y="604.5">+Multiplication</text></g></g><g transform="translate(-54,-70) scale(1,1)"><g><path fill="none" stroke="none"/><text fill="#000000" stroke="none" font-family="Arial" font-size="13px" font-style="normal" font-weight="normal" text-decoration="none" x="485" y="619.5">+Division</text></g></g><g transform="translate(-54,-70) scale(1,1)"><g><path fill="none" stroke="none"/><text fill="#000000" stroke="none" font-family="Arial" font-size="13px" font-style="normal" font-weight="normal" text-decoration="none" x="485" y="634.5">+Equals</text></g></g><g transform="translate(-54,-70) scale(1,1)"><g><path fill="none" stroke="none"/><text fill="#000000" stroke="none" font-family="Arial" font-size="13px" font-style="normal" font-weight="normal" text-decoration="none" x="485" y="649.5">+Logic gates</text></g></g><g transform="translate(-54,-70) scale(1,1)"><path fill="none" stroke="#000000" d="M 529 465 L 527.85 496" stroke-miterlimit="10"/></g><g transform="translate(-54,-70) scale(1,1)"><path fill="none" stroke="#000000" d="M 338.4626555006685 80.40119318591225 A 11.5 11.5 0 0 1 329.5373444993315 101.59880681408775" stroke-miterlimit="10"/></g><g transform="translate(-54,-70) scale(1,1)"><path fill="none" stroke="#000000" d="M 280 128 L 389.7880859375 128" stroke-miterlimit="10"/></g><g transform="translate(-54,-70) scale(1,1)"><g><path fill="none" stroke="none"/><text fill="#000000" stroke="none" font-family="Arial" font-size="13px" font-style="normal" font-weight="bold" text-decoration="none" x="312.858154296875" y="120.5">Library</text></g></g><g transform="translate(-54,-70) scale(1,1)"><g><path fill="none" stroke="none"/><text fill="#000000" stroke="none" font-family="Arial" font-size="13px" font-style="normal" font-weight="normal" text-decoration="none" x="285" y="143.5">+Importing library</text></g></g><g transform="translate(-54,-70) scale(1,1)"><g><path fill="none" stroke="none"/><text fill="#000000" stroke="none" font-family="Arial" font-size="13px" font-style="normal" font-weight="normal" text-decoration="none" x="285" y="158.5">+Creating library</text></g></g><g transform="translate(-54,-70) scale(1,1)"><path fill="none" stroke="#000000" d="M 530 263 L 528 96 L 346.39404296875 96.21854440789474" stroke-miterlimit="10"/></g><g transform="translate(-54,-70) scale(1,1)"><path fill="none" stroke="#000000" d="M 124.5 363 A 11.5 11.5 0 0 1 147.5 363" stroke-miterlimit="10"/></g><g transform="translate(-54,-70) scale(1,1)"><path fill="none" stroke="#000000" d="M 64 400 L 208.47802734375 400" stroke-miterlimit="10"/></g><g transform="translate(-54,-70) scale(1,1)"><g><path fill="none" stroke="none"/><text fill="#000000" stroke="none" font-family="Arial" font-size="13px" font-style="normal" font-weight="bold" text-decoration="none" x="78.805419921875" y="392.5">Standard Libraries</text></g></g><g transform="translate(-54,-70) scale(1,1)"><g><path fill="none" stroke="none"/><text fill="#000000" stroke="none" font-family="Arial" font-size="13px" font-style="normal" font-weight="normal" text-decoration="none" x="69" y="415.5">+OS Specific Functions</text></g></g><g transform="translate(-54,-70) scale(1,1)"><g><path fill="none" stroke="none"/><text fill="#000000" stroke="none" font-family="Arial" font-size="13px" font-style="normal" font-weight="normal" text-decoration="none" x="69" y="430.5">+Platform</text></g></g><g transform="translate(-54,-70) scale(1,1)"><g><path fill="none" stroke="none"/><text fill="#000000" stroke="none" font-family="Arial" font-size="13px" font-style="normal" font-weight="normal" text-decoration="none" x="69" y="445.5">+Standard IO</text></g></g><g transform="translate(-54,-70) scale(1,1)"><path fill="none" stroke="#000000" d="M 415 322 L 408 320 L 136 320 L 136 352" stroke-miterlimit="10"/></g><g transform="translate(-54,-70) scale(1,1)"><path fill="none" stroke="#000000" d="M 627.5397237801839 522.044976981682 A 11.5 11.5 0 0 1 650.4602762198161 523.955023018318" stroke-miterlimit="10"/></g><g transform="translate(-54,-70) scale(1,1)"><path fill="none" stroke="#000000" d="M 581.7353515625 560 L 696.5888671875 560" stroke-miterlimit="10"/></g><g transform="translate(-54,-70) scale(1,1)"><g><path fill="none" stroke="none"/><text fill="#000000" stroke="none" font-family="Arial" font-size="13px" font-style="normal" font-weight="bold" text-decoration="none" x="608.109375" y="552.5">Functions</text></g></g><g transform="translate(-54,-70) scale(1,1)"><g><path fill="none" stroke="none"/><text fill="#000000" stroke="none" font-family="Arial" font-size="13px" font-style="normal" font-weight="normal" text-decoration="none" x="586.7353515625" y="575.5">+Create Function</text></g></g><g transform="translate(-54,-70) scale(1,1)"><g><path fill="none" stroke="none"/><text fill="#000000" stroke="none" font-family="Arial" font-size="13px" font-style="normal" font-weight="normal" text-decoration="none" x="586.7353515625" y="590.5">+Call Function</text></g></g><g transform="translate(-54,-70) scale(1,1)"><g><path fill="none" stroke="none"/><text fill="#000000" stroke="none" font-family="Arial" font-size="13px" font-style="normal" font-weight="normal" text-decoration="none" x="586.7353515625" y="605.5">+Pass parameters</text></g></g><g transform="translate(-54,-70) scale(1,1)"><g><path fill="none" stroke="none"/><text fill="#000000" stroke="none" font-family="Arial" font-size="13px" font-style="normal" font-weight="normal" text-decoration="none" x="586.7353515625" y="620.5">+Return value</text></g></g><g transform="translate(-54,-70) scale(1,1)"><path fill="none" stroke="#000000" d="M 626 465 L 640 480 L 639.9166666666666 512" stroke-miterlimit="10"/></g><g transform="translate(-54,-70) scale(1,1)"><rect fill="#C0C0C0" stroke="none" x="759" y="191" width="58.841796875" height="44" opacity="0.2"/></g><g transform="translate(-54,-70) scale(1,1)"><rect fill="#ffffff" stroke="none" x="752" y="184" width="58.841796875" height="44"/></g><g transform="translate(-54,-70) scale(1,1)"><path fill="none" stroke="#000000" d="M 752 184 L 810.841796875 184 L 810.841796875 228 L 752 228 L 752 184 Z Z" stroke-miterlimit="10"/></g><g transform="translate(-54,-70) scale(1,1)"><path fill="none" stroke="#000000" d="M 752 209 L 810.841796875 209" stroke-miterlimit="10"/></g><g transform="translate(-54,-70) scale(1,1)"><path fill="none" stroke="#000000" d="M 752 219 L 810.841796875 219" stroke-miterlimit="10"/></g><g transform="translate(-54,-70) scale(1,1)"><g><path fill="none" stroke="none"/><text fill="#000000" stroke="none" font-family="Arial" font-size="13px" font-style="normal" font-weight="bold" text-decoration="none" x="756.5" y="201.5">C Sharp</text></g></g><g transform="translate(-54,-70) scale(1,1)"><path fill="none" stroke="#000000" d="M 751 225 L 649 290" stroke-miterlimit="10"/></g><g transform="translate(-54,-70) scale(1,1)"><path fill="#FFFFFF" stroke="none" d="M 661.6163148206782 271.9769980207088 L 649 290 L 670.6652686801813 286.17689484639055"/></g><g transform="translate(-54,-70) scale(1,1)"><path fill="none" stroke="#000000" d="M 661.6163148206782 271.9769980207088 L 649 290 L 670.6652686801813 286.17689484639055 L 661.6163148206782 271.9769980207088" stroke-miterlimit="10"/></g><g transform="translate(-54,-70) scale(1,1)"><rect fill="#C0C0C0" stroke="none" x="735" y="279" width="106.51904296875" height="147" opacity="0.2"/></g><g transform="translate(-54,-70) scale(1,1)"><rect fill="#ffffff" stroke="none" x="728" y="272" width="106.51904296875" height="147"/></g><g transform="translate(-54,-70) scale(1,1)"><path fill="none" stroke="#000000" d="M 728 272 L 834.51904296875 272 L 834.51904296875 419 L 728 419 L 728 272 Z Z" stroke-miterlimit="10"/></g><g transform="translate(-54,-70) scale(1,1)"><path fill="none" stroke="#000000" d="M 728 297 L 834.51904296875 297" stroke-miterlimit="10"/></g><g transform="translate(-54,-70) scale(1,1)"><path fill="none" stroke="#000000" d="M 728 365 L 834.51904296875 365" stroke-miterlimit="10"/></g><g transform="translate(-54,-70) scale(1,1)"><g><path fill="none" stroke="none"/><text fill="#000000" stroke="none" font-family="Arial" font-size="13px" font-style="normal" font-weight="bold" text-decoration="none" x="732.5" y="289.5">Object Oriented</text></g></g><g transform="translate(-54,-70) scale(1,1)"><g><path fill="none" stroke="none"/><text fill="#000000" stroke="none" font-family="Arial" font-size="13px" font-style="normal" font-weight="normal" text-decoration="none" x="733" y="312.5">+Namespace</text></g></g><g transform="translate(-54,-70) scale(1,1)"><g><path fill="none" stroke="none"/><text fill="#000000" stroke="none" font-family="Arial" font-size="13px" font-style="normal" font-weight="normal" text-decoration="none" x="733" y="327.5">+Interface</text></g></g><g transform="translate(-54,-70) scale(1,1)"><g><path fill="none" stroke="none"/><text fill="#000000" stroke="none" font-family="Arial" font-size="13px" font-style="normal" font-weight="normal" text-decoration="none" x="733" y="342.5">+Inheritance</text></g></g><g transform="translate(-54,-70) scale(1,1)"><g><path fill="none" stroke="none"/><text fill="#000000" stroke="none" font-family="Arial" font-size="13px" font-style="normal" font-weight="normal" text-decoration="none" x="733" y="357.5">+Private Public</text></g></g><g transform="translate(-54,-70) scale(1,1)"><path fill="none" stroke="#000000" d="M 781 229 L 781 271" stroke-miterlimit="10"/></g><g transform="translate(-54,-70) scale(1,1)"><path fill="#000000" stroke="none" d="M 785.209517756016 239.16267485762415 L 781 229 L 776.790482243984 239.16267485762415 L 781 251"/></g><g transform="translate(-54,-70) scale(1,1)"><path fill="none" stroke="#000000" d="M 785.209517756016 239.16267485762415 L 781 229 L 776.790482243984 239.16267485762415 L 781 251 L 785.209517756016 239.16267485762415" stroke-miterlimit="10"/></g><g transform="translate(-54,-70) scale(1,1)"><rect fill="#C0C0C0" stroke="none" x="879" y="335" width="72.2353515625" height="57" opacity="0.2"/></g><g transform="translate(-54,-70) scale(1,1)"><rect fill="#ffffff" stroke="none" x="872" y="328" width="72.2353515625" height="57"/></g><g transform="translate(-54,-70) scale(1,1)"><path fill="none" stroke="#000000" d="M 872 328 L 944.2353515625 328 L 944.2353515625 385 L 872 385 L 872 328 Z Z" stroke-miterlimit="10"/></g><g transform="translate(-54,-70) scale(1,1)"><path fill="none" stroke="#000000" d="M 872 353 L 944.2353515625 353" stroke-miterlimit="10"/></g><g transform="translate(-54,-70) scale(1,1)"><path fill="none" stroke="#000000" d="M 872 376 L 944.2353515625 376" stroke-miterlimit="10"/></g><g transform="translate(-54,-70) scale(1,1)"><g><path fill="none" stroke="none"/><text fill="#000000" stroke="none" font-family="Arial" font-size="13px" font-style="normal" font-weight="bold" text-decoration="none" x="890.772705078125" y="345.5">Class</text></g></g><g transform="translate(-54,-70) scale(1,1)"><g><path fill="none" stroke="none"/><text fill="#000000" stroke="none" font-family="Arial" font-size="13px" font-style="normal" font-weight="normal" text-decoration="none" x="877" y="368.5">+Variable</text></g></g><g transform="translate(-54,-70) scale(1,1)"><path fill="none" stroke="#000000" d="M 836 350 L 871 353" stroke-miterlimit="10"/></g><g transform="translate(-54,-70) scale(1,1)"><path fill="#000000" stroke="none" d="M 846.4850446605765 346.67376512168556 L 836 350 L 845.7660494188128 355.0620429422621 L 857.9196262789185 351.8788251096216"/></g><g transform="translate(-54,-70) scale(1,1)"><path fill="none" stroke="#000000" d="M 846.4850446605765 346.67376512168556 L 836 350 L 845.7660494188128 355.0620429422621 L 857.9196262789185 351.8788251096216 L 846.4850446605765 346.67376512168556" stroke-miterlimit="10"/></g><g transform="translate(-54,-70) scale(1,1)"><rect fill="#C0C0C0" stroke="none" x="863" y="431" width="111.958984375" height="72" opacity="0.2"/></g><g transform="translate(-54,-70) scale(1,1)"><rect fill="#ffffff" stroke="none" x="856" y="424" width="111.958984375" height="72"/></g><g transform="translate(-54,-70) scale(1,1)"><path fill="none" stroke="#000000" d="M 856 424 L 967.958984375 424 L 967.958984375 496 L 856 496 L 856 424 Z Z" stroke-miterlimit="10"/></g><g transform="translate(-54,-70) scale(1,1)"><path fill="none" stroke="#000000" d="M 856 449 L 967.958984375 449" stroke-miterlimit="10"/></g><g transform="translate(-54,-70) scale(1,1)"><path fill="none" stroke="#000000" d="M 856 487 L 967.958984375 487" stroke-miterlimit="10"/></g><g transform="translate(-54,-70) scale(1,1)"><g><path fill="none" stroke="none"/><text fill="#000000" stroke="none" font-family="Arial" font-size="13px" font-style="normal" font-weight="bold" text-decoration="none" x="885.259033203125" y="441.5">Methods</text></g></g><g transform="translate(-54,-70) scale(1,1)"><g><path fill="none" stroke="none"/><text fill="#000000" stroke="none" font-family="Arial" font-size="13px" font-style="normal" font-weight="normal" text-decoration="none" x="861" y="464.5">+Normal Methods</text></g></g><g transform="translate(-54,-70) scale(1,1)"><g><path fill="none" stroke="none"/><text fill="#000000" stroke="none" font-family="Arial" font-size="13px" font-style="normal" font-weight="normal" text-decoration="none" x="861" y="479.5">+Magic Methods</text></g></g><g transform="translate(-54,-70) scale(1,1)"><path fill="none" stroke="#000000" d="M 909 386 L 910 423" stroke-miterlimit="10"/></g><g transform="translate(-54,-70) scale(1,1)"><path fill="#000000" stroke="none" d="M 913.4825477815691 396.04523595471755 L 909 386 L 905.0665854711406 396.27269439553993 L 909.5943775496542 407.99196933720276"/></g><g transform="translate(-54,-70) scale(1,1)"><path fill="none" stroke="#000000" d="M 913.4825477815691 396.04523595471755 L 909 386 L 905.0665854711406 396.27269439553993 L 909.5943775496542 407.99196933720276 L 913.4825477815691 396.04523595471755" stroke-miterlimit="10"/></g></g></svg>